<?xml version="1.0" encoding="utf-8"?>
<!-- Generator: Adobe Illustrator 15.0.0, SVG Export Plug-In . SVG Version: 6.00 Build 0)  -->
<!DOCTYPE svg PUBLIC "-//W3C//DTD SVG 1.1//EN" "http://www.w3.org/Graphics/SVG/1.1/DTD/svg11.dtd">
<svg version="1.1" id="Layer_1" xmlns="http://www.w3.org/2000/svg" xmlns:xlink="http://www.w3.org/1999/xlink" x="0px" y="0px"
	 width="364.701px" height="78.914px" viewBox="0 0 364.701 78.914" enable-background="new 0 0 364.701 78.914"
	 xml:space="preserve">
<g>
	<g>
		<g enable-background="new    ">
			<path fill="none" stroke="#FFFFFF" stroke-width="2" stroke-miterlimit="10" d="M38.629,71.289
				c-3.313,3.785-8.283,6.625-16.33,6.625C9.283,77.914,1,69.631,1,57.799V42.416c0-11.834,8.283-20.117,21.3-20.117
				c8.401,0,13.49,3.076,16.803,7.1c2.012,2.486,2.84,4.143,2.84,4.734c0,0.473-0.237,0.828-0.71,1.064l-6.153,3.076
				c-0.947,0.475-1.538,0.828-2.012,0.828c-0.355,0-0.71-0.236-0.946-0.709c-2.13-4.26-5.917-6.627-9.822-6.627
				c-5.798,0-10.65,4.852-10.65,10.65v15.383c0,5.799,4.852,10.65,10.65,10.65c4.023,0,7.691-2.367,9.94-6.863
				c0.237-0.475,0.592-0.711,0.947-0.711s0.71,0.236,1.42,0.592l6.745,3.432c0.474,0.236,0.71,0.592,0.71,0.947
				C42.061,66.438,40.641,68.922,38.629,71.289z"/>
		</g>
		<g enable-background="new    ">
			<path fill="none" stroke="#FFFFFF" stroke-width="2" stroke-miterlimit="10" d="M88.635,76.732h-7.1
				c-0.829,0-1.184-0.355-1.184-1.184v-1.42c0-0.828-0.473-1.42-1.065-1.42c-0.355,0-0.592,0.236-0.947,0.473
				c-2.722,2.248-6.863,3.551-9.821,3.551c-13.017,0-21.3-8.283-21.3-20.117V24.666c0-0.828,0.355-1.184,1.183-1.184h8.283
				c0.829,0,1.184,0.355,1.184,1.184v31.949c0,5.799,4.852,10.65,10.65,10.65s10.65-4.852,10.65-10.65V24.666
				c0-0.828,0.355-1.184,1.183-1.184h8.283c0.829,0,1.184,0.355,1.184,1.184v50.883C89.818,76.377,89.463,76.732,88.635,76.732z"/>
		</g>
		<g enable-background="new    ">
			<path fill="none" stroke="#FFFFFF" stroke-width="2" stroke-miterlimit="10" d="M122.141,35.316
				c-0.474,0-1.657-0.592-3.313-0.592c-6.035,0-10.532,3.193-10.532,10.057v30.768c0,0.828-0.355,1.184-1.183,1.184h-8.283
				c-0.829,0-1.184-0.355-1.184-1.184V24.666c0-0.828,0.355-1.184,1.184-1.184h7.1c0.829,0,1.184,0.355,1.184,1.184v3.787
				c0,0.828,0.473,1.42,1.065,1.42c0.355,0,0.592-0.119,0.828-0.475c1.657-2.129,6.035-5.916,9.94-5.916
				c1.302,0,2.367,0.119,3.195,0.236c0.71,0.119,0.946,0.473,0.946,1.184v9.348C123.087,34.961,122.732,35.316,122.141,35.316z"/>
		</g>
		<g enable-background="new    ">
			<path fill="none" stroke="#FFFFFF" stroke-width="2" stroke-miterlimit="10" d="M167.97,76.732h-7.1
				c-0.829,0-1.184-0.355-1.184-1.184V74.01c0-0.828-0.474-1.42-1.065-1.42c-0.354,0-0.591,0.236-0.946,0.473
				c-3.313,2.723-6.981,3.67-9.348,3.67h-4.615c-8.756,0-15.738-5.918-15.738-14.793V61.23c0-8.994,6.982-14.674,15.738-14.674
				h13.608c0.828,0,1.183-0.355,1.183-1.184v-3.313c0-5.916-4.733-10.414-10.768-10.414c-3.55,0-7.218,2.012-9.822,6.627
				c-0.236,0.475-0.592,0.711-0.947,0.711s-1.301-0.592-2.011-0.947l-5.917-3.076c-0.473-0.236-0.71-0.592-0.71-0.947
				c0-0.473,1.184-2.484,2.367-4.023c3.432-4.615,8.402-7.691,17.04-7.691c13.017,0,21.418,7.928,21.418,19.762v33.488
				C169.154,76.377,168.798,76.732,167.97,76.732z M158.503,56.023c0-0.828-0.354-1.184-1.183-1.184h-13.608
				c-2.958,0-5.207,2.248-5.207,5.207v1.893c0,2.959,2.248,5.326,5.207,5.326h4.615c4.733,0,9.348-4.26,10.176-8.639V56.023z"/>
		</g>
		<g>
			<path fill="none" stroke="#FFFFFF" stroke-width="2" stroke-miterlimit="10" d="M202.662,77.797
				c-1.894,0-5.325-0.592-8.165-1.775c-7.573-3.076-11.951-9.703-11.951-18.223V34.133c0-0.828-0.355-1.184-1.184-1.184h-6.508
				c-0.829,0-1.184-0.355-1.184-1.064c0-0.592,0.118-2.367,0.236-4.262l13.017-13.844c0.592-0.592,1.065-0.947,1.657-0.947h3.432
				c0.828,0,1.183,0.355,1.183,1.184v8.283c0,0.828,0.355,1.184,1.184,1.184h8.283c0.828,0,1.184,0.355,1.184,1.184v7.1
				c0,0.828-0.355,1.184-1.184,1.184h-8.283c-0.828,0-1.184,0.355-1.184,1.184v23.666c0,5.088,3.787,9.584,9.703,10.531
				c0.592,0.119,0.947,0.473,0.947,1.184v7.1C203.845,77.441,203.372,77.797,202.662,77.797z"/>
			<path fill="none" stroke="#FFFFFF" stroke-width="2" stroke-miterlimit="10" d="M228.693,77.914
				c-13.017,0-21.3-8.283-21.3-20.115V42.416c0-11.834,8.283-20.117,21.3-20.117s21.3,8.283,21.3,20.117v15.383
				C249.993,69.631,241.709,77.914,228.693,77.914z M239.342,42.416c0-5.799-4.852-10.65-10.649-10.65
				c-5.799,0-10.65,4.852-10.65,10.65v15.383c0,5.799,4.852,10.65,10.65,10.65c5.798,0,10.649-4.852,10.649-10.65V42.416z"/>
			<path fill="none" stroke="#FFFFFF" stroke-width="2" stroke-miterlimit="10" d="M281.348,35.316
				c-0.473,0-1.656-0.592-3.313-0.592c-6.035,0-10.532,3.193-10.532,10.057v30.768c0,0.828-0.355,1.184-1.184,1.184h-8.283
				c-0.828,0-1.184-0.355-1.184-1.184V24.666c0-0.828,0.355-1.184,1.184-1.184h7.1c0.828,0,1.184,0.355,1.184,1.184v3.787
				c0,0.828,0.474,1.42,1.064,1.42c0.355,0,0.592-0.119,0.829-0.475c1.656-2.129,6.035-5.916,9.939-5.916
				c1.303,0,2.367,0.119,3.195,0.236c0.711,0.119,0.947,0.473,0.947,1.184v9.348C282.295,34.961,281.939,35.316,281.348,35.316z"/>
			<path fill="none" stroke="#FFFFFF" stroke-width="2" stroke-miterlimit="10" d="M285.842,77.914c-3.668,0-6.508-2.84-6.508-6.508
				s2.84-6.508,6.508-6.508c3.67,0,6.51,2.84,6.51,6.508S289.512,77.914,285.842,77.914z"/>
			<path fill="none" stroke="#FFFFFF" stroke-width="2" stroke-miterlimit="10" d="M340.273,76.732h-7.1
				c-0.828,0-1.184-0.355-1.184-1.184V74.01c0-0.828-0.473-1.42-1.064-1.42c-0.355,0-0.592,0.236-0.947,0.473
				c-3.313,2.723-6.98,3.67-9.348,3.67h-4.615c-8.756,0-15.738-5.918-15.738-14.793V61.23c0-8.994,6.982-14.674,15.738-14.674
				h13.607c0.828,0,1.184-0.355,1.184-1.184v-3.313c0-5.916-4.732-10.414-10.768-10.414c-3.551,0-7.219,2.012-9.822,6.627
				c-0.236,0.475-0.592,0.711-0.945,0.711c-0.355,0-1.303-0.592-2.012-0.947l-5.918-3.076c-0.473-0.236-0.709-0.592-0.709-0.947
				c0-0.473,1.184-2.484,2.367-4.023c3.432-4.615,8.4-7.691,17.039-7.691c13.016,0,21.418,7.928,21.418,19.762v33.488
				C341.457,76.377,341.102,76.732,340.273,76.732z M330.807,56.023c0-0.828-0.355-1.184-1.184-1.184h-13.607
				c-2.959,0-5.207,2.248-5.207,5.207v1.893c0,2.959,2.248,5.326,5.207,5.326h4.615c4.732,0,9.348-4.26,10.176-8.639V56.023z"/>
			<path fill="none" stroke="#FFFFFF" stroke-width="2" stroke-miterlimit="10" d="M357.193,14.016c-3.668,0-6.51-2.84-6.51-6.508
				S353.525,1,357.193,1s6.508,2.84,6.508,6.508S360.861,14.016,357.193,14.016z M361.334,76.732h-8.283
				c-0.828,0-1.184-0.355-1.184-1.184V24.666c0-0.828,0.355-1.184,1.184-1.184h8.283c0.828,0,1.184,0.355,1.184,1.184v50.883
				C362.518,76.377,362.162,76.732,361.334,76.732z"/>
		</g>
	</g>
</g>
</svg>
