<?xml version="1.0" encoding="utf-8"?>
<!-- Generator: Adobe Illustrator 15.0.0, SVG Export Plug-In . SVG Version: 6.00 Build 0)  -->
<!DOCTYPE svg PUBLIC "-//W3C//DTD SVG 1.1//EN" "http://www.w3.org/Graphics/SVG/1.1/DTD/svg11.dtd">
<svg version="1.1" id="Layer_1" xmlns="http://www.w3.org/2000/svg" xmlns:xlink="http://www.w3.org/1999/xlink" x="0px" y="0px"
	 width="362.701px" height="76.915px" viewBox="0 0 362.701 76.915" enable-background="new 0 0 362.701 76.915"
	 xml:space="preserve">
<g enable-background="new    ">
	<path fill="#f1f5f9" d="M37.629,70.289c-3.313,3.786-8.283,6.626-16.329,6.626C8.283,76.915,0,68.632,0,56.799V41.416
		c0-11.834,8.283-20.117,21.3-20.117c8.401,0,13.489,3.077,16.804,7.1c2.012,2.486,2.84,4.143,2.84,4.734
		c0,0.473-0.237,0.828-0.711,1.064l-6.152,3.076c-0.947,0.475-1.539,0.829-2.012,0.829c-0.355,0-0.711-0.237-0.947-0.71
		c-2.13-4.26-5.916-6.627-9.821-6.627c-5.798,0-10.649,4.852-10.649,10.65v15.383c0,5.799,4.852,10.65,10.649,10.65
		c4.023,0,7.691-2.367,9.94-6.863c0.236-0.474,0.592-0.71,0.946-0.71s0.71,0.236,1.42,0.592l6.745,3.432
		c0.473,0.236,0.709,0.591,0.709,0.946C41.061,65.438,39.641,67.922,37.629,70.289z"/>
</g>
<g enable-background="new    ">
	<path fill="#f1f5f9" d="M87.635,75.732h-7.1c-0.828,0-1.184-0.355-1.184-1.184v-1.42c0-0.828-0.473-1.42-1.064-1.42
		c-0.355,0-0.592,0.236-0.947,0.474c-2.722,2.248-6.863,3.55-9.821,3.55c-13.017,0-21.3-8.283-21.3-20.116v-31.95
		c0-0.828,0.355-1.184,1.184-1.184h8.283c0.828,0,1.184,0.355,1.184,1.184v31.95c0,5.798,4.852,10.649,10.649,10.649
		s10.649-4.852,10.649-10.649v-31.95c0-0.828,0.355-1.184,1.184-1.184h8.283c0.828,0,1.184,0.355,1.184,1.184v50.883
		C88.818,75.377,88.463,75.732,87.635,75.732z"/>
</g>
<g enable-background="new    ">
	<path fill="#f1f5f9" d="M121.141,34.316c-0.474,0-1.656-0.592-3.313-0.592c-6.035,0-10.532,3.194-10.532,10.058v30.767
		c0,0.828-0.354,1.184-1.183,1.184h-8.283c-0.829,0-1.184-0.355-1.184-1.184V23.666c0-0.828,0.354-1.184,1.184-1.184h7.1
		c0.829,0,1.184,0.355,1.184,1.184v3.787c0,0.828,0.474,1.42,1.065,1.42c0.354,0,0.592-0.119,0.828-0.475
		c1.656-2.129,6.035-5.916,9.939-5.916c1.302,0,2.367,0.119,3.195,0.236c0.71,0.119,0.946,0.474,0.946,1.184v9.349
		C122.087,33.961,121.732,34.316,121.141,34.316z"/>
</g>
<g enable-background="new    ">
	<path fill="#f1f5f9" d="M166.971,75.732h-7.1c-0.83,0-1.184-0.355-1.184-1.184v-1.538c0-0.828-0.475-1.42-1.066-1.42
		c-0.354,0-0.59,0.236-0.945,0.473c-3.313,2.722-6.982,3.669-9.349,3.669h-4.614c-8.757,0-15.738-5.917-15.738-14.792v-0.71
		c0-8.993,6.981-14.673,15.738-14.673h13.607c0.828,0,1.184-0.355,1.184-1.184v-3.313c0-5.916-4.733-10.413-10.768-10.413
		c-3.551,0-7.219,2.012-9.822,6.626c-0.236,0.475-0.592,0.711-0.947,0.711c-0.354,0-1.301-0.592-2.011-0.947l-5.917-3.076
		c-0.473-0.236-0.71-0.592-0.71-0.947c0-0.473,1.184-2.484,2.366-4.023c3.432-4.614,8.402-7.691,17.041-7.691
		c13.016,0,21.418,7.929,21.418,19.762v33.488C168.154,75.377,167.799,75.732,166.971,75.732z M157.504,55.024
		c0-0.829-0.355-1.184-1.184-1.184h-13.607c-2.959,0-5.207,2.248-5.207,5.207v1.893c0,2.959,2.248,5.325,5.207,5.325h4.614
		c4.733,0,9.349-4.26,10.177-8.639V55.024z"/>
</g>
<path fill="#f1f5f9" d="M201.662,76.797c-1.895,0-5.326-0.592-8.166-1.774c-7.572-3.077-11.951-9.703-11.951-18.224V33.133
	c0-0.828-0.355-1.184-1.184-1.184h-6.508c-0.828,0-1.184-0.355-1.184-1.064c0-0.592,0.119-2.367,0.236-4.261l13.018-13.845
	c0.592-0.592,1.064-0.947,1.656-0.947h3.432c0.828,0,1.184,0.355,1.184,1.184v8.283c0,0.828,0.355,1.184,1.184,1.184h8.283
	c0.828,0,1.184,0.355,1.184,1.184v7.1c0,0.828-0.355,1.184-1.184,1.184h-8.283c-0.828,0-1.184,0.355-1.184,1.184v23.666
	c0,5.089,3.787,9.585,9.703,10.532c0.592,0.118,0.947,0.473,0.947,1.183v7.101C202.846,76.442,202.371,76.797,201.662,76.797z"/>
<path fill="#f1f5f9" d="M227.693,76.915c-13.018,0-21.301-8.283-21.301-20.116V41.416c0-11.834,8.283-20.117,21.301-20.117
	c13.016,0,21.299,8.283,21.299,20.117v15.383C248.992,68.632,240.709,76.915,227.693,76.915z M238.342,41.416
	c0-5.799-4.852-10.65-10.648-10.65c-5.799,0-10.65,4.852-10.65,10.65v15.383c0,5.799,4.852,10.65,10.65,10.65
	c5.797,0,10.648-4.852,10.648-10.65V41.416z"/>
<path fill="#f1f5f9" d="M280.348,34.316c-0.473,0-1.656-0.592-3.313-0.592c-6.035,0-10.531,3.194-10.531,10.058v30.767
	c0,0.828-0.355,1.184-1.184,1.184h-8.283c-0.828,0-1.184-0.355-1.184-1.184V23.666c0-0.828,0.355-1.184,1.184-1.184h7.1
	c0.828,0,1.184,0.355,1.184,1.184v3.787c0,0.828,0.473,1.42,1.064,1.42c0.355,0,0.592-0.119,0.828-0.475
	c1.656-2.129,6.035-5.916,9.939-5.916c1.303,0,2.367,0.119,3.195,0.236c0.711,0.119,0.947,0.474,0.947,1.184v9.349
	C281.295,33.961,280.939,34.316,280.348,34.316z"/>
<path fill="#f1f5f9" d="M284.842,76.915c-3.668,0-6.508-2.84-6.508-6.508s2.84-6.508,6.508-6.508c3.67,0,6.51,2.84,6.51,6.508
	S288.512,76.915,284.842,76.915z"/>
<path fill="#f1f5f9" d="M339.273,75.732h-7.1c-0.828,0-1.184-0.355-1.184-1.184v-1.538c0-0.828-0.473-1.42-1.064-1.42
	c-0.355,0-0.592,0.236-0.947,0.473c-3.313,2.722-6.98,3.669-9.348,3.669h-4.615c-8.756,0-15.738-5.917-15.738-14.792v-0.71
	c0-8.993,6.982-14.673,15.738-14.673h13.607c0.828,0,1.184-0.355,1.184-1.184v-3.313c0-5.916-4.732-10.413-10.768-10.413
	c-3.551,0-7.219,2.012-9.822,6.626c-0.236,0.475-0.592,0.711-0.945,0.711c-0.355,0-1.303-0.592-2.012-0.947l-5.918-3.076
	c-0.473-0.236-0.709-0.592-0.709-0.947c0-0.473,1.184-2.484,2.367-4.023c3.432-4.614,8.4-7.691,17.039-7.691
	c13.016,0,21.418,7.929,21.418,19.762v33.488C340.457,75.377,340.102,75.732,339.273,75.732z M329.807,55.024
	c0-0.829-0.355-1.184-1.184-1.184h-13.607c-2.959,0-5.207,2.248-5.207,5.207v1.893c0,2.959,2.248,5.325,5.207,5.325h4.615
	c4.732,0,9.348-4.26,10.176-8.639V55.024z"/>
<path fill="#f1f5f9" d="M356.193,13.016c-3.668,0-6.51-2.84-6.51-6.508S352.525,0,356.193,0s6.508,2.84,6.508,6.508
	S359.861,13.016,356.193,13.016z M360.334,75.732h-8.283c-0.828,0-1.184-0.355-1.184-1.184V23.666c0-0.828,0.355-1.184,1.184-1.184
	h8.283c0.828,0,1.184,0.355,1.184,1.184v50.883C361.518,75.377,361.162,75.732,360.334,75.732z"/>
</svg>
